<svg width="163" height="80" viewBox="0 0 163 80" fill="none" xmlns="http://www.w3.org/2000/svg">
<path d="M115.637 23.0104H114.779V22.6993H116.866V23.0104H116.005V25.5286H115.637V23.0104Z" fill="#99B0C1"/>
<path d="M119.555 24.2869C119.534 23.8927 119.509 23.4177 119.513 23.0657H119.501C119.405 23.3972 119.288 23.7492 119.145 24.1398L118.648 25.5116H118.372L117.916 24.1651C117.783 23.7661 117.67 23.4008 117.591 23.0657H117.582C117.574 23.4177 117.554 23.8927 117.528 24.3158L117.453 25.5285H117.105L117.302 22.7004H117.766L118.247 24.0687C118.363 24.4171 118.46 24.7281 118.531 25.021H118.543C118.614 24.7353 118.715 24.4255 118.84 24.0687L119.342 22.7004H119.806L119.981 25.5285H119.626L119.555 24.2869Z" fill="#99B0C1"/>
<path d="M38.0853 42.6233C37.9412 42.604 34.537 42.1218 32.5034 40.0303C31.6349 39.137 31.325 38.5113 31.4932 38.0002C31.713 37.3264 32.7304 37.2239 34.0865 37.0021C33.2973 40.0315 38.0745 42.4967 38.1177 42.5208L38.0853 42.6245V42.6233Z" fill="#99B0C1"/>
<path d="M38.118 42.2688C38.118 42.2688 33.425 39.9374 34.0868 37.0021C31.9968 37.3444 30.6718 37.6832 32.6706 39.7434C34.6694 41.8047 38.1192 42.2688 38.1192 42.2688H38.118Z" fill="#99B0C1"/>
<path d="M59.4593 41.2985C55.1086 39.1612 46.5429 35.9064 38.7279 35.9064C35.9784 35.9064 33.534 36.3633 31.4655 37.2614L30.9982 37.4663L31.152 36.9805C31.2565 36.649 32.1874 33.7402 32.9382 33.2073L32.9586 33.1929L32.985 33.1832C33.6156 32.9216 35.1448 32.66 37.1243 32.66C41.2708 32.66 49.5651 33.8414 59.4593 41.2985Z" fill="#99B0C1"/>
<path d="M31.3752 36.9252C31.3752 36.9252 32.3674 33.7789 33.0725 33.275C34.7553 32.5879 45.9048 31.081 59.4591 41.2987C55.5048 39.3579 41.0652 32.7072 31.3752 36.9252Z" fill="#99B0C1"/>
<path d="M36.8471 32.0935C35.4104 32.0935 34.1071 32.296 32.9816 32.6986L32.4219 32.8975L32.6994 32.3683C32.8243 32.1272 33.9486 30.0056 34.6165 29.5017C34.7882 29.3703 35.4585 28.9484 36.8699 28.9484C39.1906 28.9484 43.3816 30.149 50.8206 35.5472C50.8206 35.5472 41.7419 32.0947 36.8483 32.0947L36.8471 32.0935Z" fill="#99B0C1"/>
<path d="M32.9004 32.3552C32.9004 32.3552 34.1088 30.0527 34.755 29.5657C35.3977 29.0799 39.4289 27.2765 50.8186 35.5461C47.018 33.9476 38.719 30.2866 32.9004 32.3552Z" fill="#99B0C1"/>
<path d="M47.12 32.6783C44.4978 30.5663 39.6414 28.6279 36.0798 28.6279C35.669 28.6279 35.2895 28.6604 34.9399 28.7243L34.457 28.8135L34.6949 28.3783C34.8366 28.1276 35.5657 26.8606 36.1759 26.7015C36.2372 26.6882 36.3225 26.6798 36.427 26.6798C36.4714 26.6798 40.6888 26.7992 47.12 32.6783Z" fill="#99B0C1"/>
<path d="M34.8964 28.3722C34.8964 28.3722 35.6904 26.9473 36.2321 26.8075C36.7702 26.6676 41.1882 27.2559 47.1197 32.6782C43.9053 30.0912 38.2645 27.7598 34.8976 28.3722H34.8964Z" fill="#99B0C1"/>
<path d="M54.4417 36.3077C53.4447 35.7363 52.6579 35.2843 51.673 34.8262L51.4808 34.737L51.3114 34.2018C50.5162 33.6328 48.8261 32.4261 48.7577 32.3767L48.6075 32.2718L48.5631 32.091L46.885 25.0449L45.7835 29.6836L45.1961 29.2364C43.7919 28.1659 42.3805 27.269 40.9992 26.5686L40.6544 26.3938L43.3175 16.0001H50.4526L55.8627 37.1202L54.4417 36.3077Z" fill="#99B0C1"/>
<path d="M52.0799 48.4128L49.8673 39.1173L50.6817 39.3825C52.564 39.9949 54.4907 40.7254 56.4114 41.5536L56.6288 41.6476L58.3646 48.414H52.0799V48.4128Z" fill="#99B0C1"/>
<path d="M35.4044 48.4136L38.2849 37.17L38.6609 37.1725C40.2536 37.1845 41.9593 37.3412 43.7287 37.639L44.2356 37.7246L41.7035 48.4148H35.4044V48.4136Z" fill="#99B0C1"/>
<path d="M59.8977 56.9599V26.0753H64.2917L64.8538 27.1988C65.2922 26.848 65.8196 26.5225 66.4286 26.2284C67.2346 25.8438 68.2784 25.6486 69.5325 25.6486C70.6448 25.6486 71.6934 25.8643 72.646 26.2899C73.6105 26.7166 74.4502 27.4158 75.1384 28.3681C75.8087 29.2915 76.336 30.5055 76.7036 31.975C77.0688 33.4155 77.2537 35.1888 77.2537 37.2429C77.2537 39.2971 77.0688 41.0703 76.7036 42.5121C76.3372 43.9768 75.7943 45.1919 75.0904 46.1237C74.3745 47.0725 73.4928 47.7728 72.467 48.202C71.464 48.6215 70.3337 48.8349 69.1096 48.8349C68.3217 48.8349 67.5901 48.7276 66.9367 48.5166C66.5895 48.4021 66.2664 48.2719 65.9685 48.1248V56.9587H59.8965L59.8977 56.9599ZM65.9697 44.2938C66.1415 44.4312 66.3577 44.5554 66.6148 44.6651C66.9547 44.8122 67.3523 44.8821 67.8328 44.8821C68.3133 44.8821 68.7253 44.7772 69.1217 44.5711C69.5096 44.3746 69.84 44.019 70.1391 43.4825C70.4538 42.9172 70.7096 42.1239 70.897 41.1282C71.088 40.0867 71.1853 38.7787 71.1853 37.2417C71.1853 35.7047 71.088 34.398 70.8958 33.3552C70.7084 32.3607 70.4526 31.5687 70.1379 31.0021C69.8388 30.4657 69.5072 30.1101 69.1253 29.916C68.7253 29.7086 68.2916 29.6038 67.8328 29.6038C67.3739 29.6038 66.9835 29.6737 66.7 29.8123C66.4418 29.9377 66.2004 30.0751 65.9709 30.2294V44.2926L65.9697 44.2938Z" fill="#99B0C1"/>
<path d="M89.1617 48.8363C87.4656 48.8363 85.9749 48.6278 84.7317 48.2167C83.4452 47.7924 82.3714 47.098 81.5389 46.1529C80.7161 45.2247 80.0939 44.0023 79.6891 42.5208C79.2951 41.0609 79.0957 39.2852 79.0957 37.2419C79.0957 35.1986 79.2879 33.4109 79.6663 31.9691C80.0507 30.4997 80.6092 29.2845 81.3275 28.3563C82.0578 27.4076 82.9792 26.7096 84.065 26.2817C85.1269 25.861 86.3401 25.6476 87.6698 25.6476C88.9995 25.6476 90.2164 25.861 91.2746 26.2817C92.3641 26.7108 93.2866 27.4088 94.0145 28.3575C94.728 29.2809 95.2866 30.496 95.6746 31.9691C96.0518 33.4157 96.2427 35.1902 96.2427 37.2419V39.2213H85.1749C85.2266 41.2827 85.6218 42.745 86.3485 43.5732C87.1149 44.4423 88.3485 44.8823 90.0122 44.8823H95.1785V47.843L94.8578 47.9563C94.1803 48.195 93.3299 48.4023 92.3305 48.5723C91.3467 48.7471 90.28 48.8351 89.1617 48.8351V48.8363ZM90.1683 35.2662C90.1527 34.1234 90.077 33.1662 89.9449 32.414C89.7971 31.5846 89.6037 30.9228 89.3695 30.449C89.1629 30.0343 88.9203 29.7535 88.6464 29.616C88.3449 29.4666 88.0158 29.3906 87.6698 29.3906C87.3239 29.3906 86.996 29.4678 86.6884 29.6185C86.4182 29.7547 86.1767 30.0356 85.9725 30.449C85.7335 30.9288 85.5401 31.5894 85.3972 32.414C85.2638 33.1602 85.1882 34.1185 85.1713 35.2674H90.1671L90.1683 35.2662Z" fill="#99B0C1"/>
<path d="M108.868 48.413L105.775 41.2355L102.683 48.413H96.2871L101.623 37.0272L96.4973 26.0753H102.896L105.775 32.814L108.651 26.0753H115.051L109.925 37.0272L115.26 48.413H108.868Z" fill="#99B0C1"/>
</svg>
