<svg width="163" height="80" viewBox="0 0 163 80" fill="none" xmlns="http://www.w3.org/2000/svg">
<path d="M72.25 50.7964V31.3115H80.7847C87.0296 31.3115 90.7719 34.7966 90.7719 40.9915C90.7719 47.2396 86.8677 50.7964 80.7847 50.7964H72.25ZM76.9707 35.2733V46.8439H80.3846C84.1708 46.8439 85.9356 44.7126 85.9356 41.0008C85.9356 37.1886 84.0852 35.2826 80.3846 35.2826L76.9707 35.2733Z" fill="#99B0C1"/>
<path d="M106.283 37.004V45.0294C106.283 48.5399 103.598 51.0716 99.5246 51.0716C95.4516 51.0716 92.912 48.5399 92.912 45.1289V37.004H97.4291V44.7031C97.4291 46.0569 98.3335 46.9594 99.5246 46.9594C100.873 46.9594 101.764 46.0569 101.764 44.7031V37.004H106.283Z" fill="#99B0C1"/>
<path d="M121.589 49.8522C120.513 50.4793 118.547 51.081 116.438 51.081C111.331 51.081 108.275 48.2485 108.275 43.9072C108.275 39.5659 111.282 36.7334 115.334 36.7334C119.322 36.7334 122.865 39.3646 121.862 45.0642H112.682C112.913 46.6702 114.617 47.2719 116.468 47.2719C118.318 47.2719 120.097 46.8716 120.971 46.4689L121.589 49.8522ZM117.832 42.4053C117.832 41.3524 116.926 40.3226 115.406 40.3226C113.741 40.3226 112.809 41.276 112.695 42.4053H117.832Z" fill="#99B0C1"/>
<path d="M129.699 40.6906V45.1546C129.699 47.4872 131.78 47.2859 133.957 46.7583L134.274 50.4447C133.095 50.8478 131.86 51.0595 130.615 51.0718C127.46 51.0718 125.179 49.5676 125.179 45.8812V40.6906H122.984V37.0042H125.179V32.5889H129.544V37.0042H133.432V40.6906H129.699Z" fill="#99B0C1"/>
<path d="M30.7441 53.8806H36.4316L39.6998 30.6075C39.9912 28.5248 42.0127 26.8725 44.2169 26.8725H51.9907C54.9257 26.8725 57.426 27.3978 59.4891 28.3767C57.2988 24.5653 53.0292 22.2812 46.9438 22.2812H39.1724C36.9682 22.2812 34.9444 23.9636 34.6576 26.0162L30.7441 53.8806Z" fill="#99B0C1"/>
<path d="M59.4898 28.377C60.9816 30.9595 61.5228 34.271 60.9862 38.0824C59.6655 47.487 52.7337 53.8809 42.506 53.8809H36.4322L35.7892 58.4467H47.5505C57.7782 58.4467 64.71 52.0759 66.033 42.6458C66.9744 35.9511 64.6175 30.7836 59.4898 28.377Z" fill="#99B0C1"/>
</svg>
