<svg width="163" height="69" viewBox="0 0 163 69" fill="none" xmlns="http://www.w3.org/2000/svg">
<g clip-path="url(#clip0_1_549)">
<path d="M19.1998 45.1868H9.08203V44.3333H10.3565V20.167H9.08203V19.3135H14.449V20.167H13.1746V44.3333H13.4843C15.8791 44.3333 17.4617 43.1687 18.1183 40.8037C18.3875 39.9502 18.4653 39.5626 18.6194 38.0494H19.5079L19.1998 45.1868Z" fill="#99B0C1" stroke="#99B0C1" stroke-width="0.861404" stroke-miterlimit="10"/>
<path d="M29.0847 44.3333H30.3592V45.1868H24.9922V44.3333H26.2666V20.167H24.9922V19.3135H30.3592V20.167H29.0847V44.3333Z" fill="#99B0C1" stroke="#99B0C1" stroke-width="0.861404" stroke-miterlimit="10"/>
<path d="M45.6888 45.1868L38.5122 23.1151V43.0922C38.5122 44.1004 38.7052 44.3333 39.5159 44.3333H40.0169V45.1868H36.0801V44.3333H36.5827C37.3934 44.3333 37.5864 44.1004 37.5864 43.0922V21.4081C37.5864 20.2435 37.5086 20.167 36.0801 20.167V19.3135H40.4061L46.6195 38.9795V21.4081C46.6195 20.2435 46.5416 20.167 45.1131 20.167V19.3135H49.0905V20.167C47.6231 20.167 47.5453 20.2435 47.5453 21.4081V45.1884H45.6888" fill="#99B0C1"/>
<path d="M45.6888 45.1868L38.5122 23.1151V43.0922C38.5122 44.1004 38.7052 44.3333 39.5159 44.3333H40.0169V45.1868H36.0801V44.3333H36.5827C37.3934 44.3333 37.5864 44.1004 37.5864 43.0922V21.4081C37.5864 20.2435 37.5086 20.167 36.0801 20.167V19.3135H40.4061L46.6195 38.9795V21.4081C46.6195 20.2435 46.5416 20.167 45.1131 20.167V19.3135H49.0905V20.167C47.6231 20.167 47.5453 20.2435 47.5453 21.4081V45.1884H45.6888" stroke="#99B0C1" stroke-width="0.861404" stroke-miterlimit="10"/>
<path d="M59.4349 44.3333C62.3308 44.3333 63.4885 42.053 63.4885 36.1893V27.5372C63.4885 24.4344 63.0637 22.3381 62.2529 21.2925C61.6352 20.4781 60.7855 20.167 59.2792 20.167H58.8933V44.3333H59.4349ZM59.0863 19.3135C61.6352 19.3135 63.2177 19.934 64.4549 21.3299C65.9596 23.076 66.6941 25.5192 66.6941 28.8223V34.7511C66.6941 37.6992 66.0374 40.2597 64.7629 42.3152C63.5274 44.2942 61.7892 45.1868 59.2419 45.1868H54.8008V44.3333H56.0752V20.167H54.8008V19.3135H59.0863Z" fill="#99B0C1" stroke="#99B0C1" stroke-width="0.861404" stroke-miterlimit="10"/>
<path d="M76.7722 32.2689V44.3333H78.0467V45.1868H72.6797V44.3333H73.9541V20.167H72.6797V19.3135H78.0467V20.167H76.7722V31.4154H80.8664V20.167H79.5919V19.3135H84.9589V20.167H83.686V44.3333H84.9589V45.1868H79.5919V44.3333H80.8664V32.2689H76.7722Z" fill="#99B0C1" stroke="#99B0C1" stroke-width="0.861404" stroke-miterlimit="10"/>
<path d="M94.1103 36.9635C94.1103 42.8272 94.6518 44.5667 96.4273 44.5667C98.1655 44.5667 98.6973 42.8206 98.6973 36.9635V27.5377C98.6973 21.6741 98.1574 19.9345 96.4273 19.9345C94.6437 19.9345 94.1103 21.6806 94.1103 27.5377V36.9635ZM90.9452 29.2822C90.9452 23.5423 93.3385 19.0811 96.4273 19.0811C99.5162 19.0811 101.909 23.5423 101.909 29.2822V35.2175C101.909 40.9589 99.5162 45.4202 96.4257 45.4202C93.3352 45.4202 90.9436 40.9198 90.9436 35.2175V29.2822" fill="#99B0C1"/>
<path d="M90.9452 29.2822C90.9452 23.5423 93.3385 19.0811 96.4273 19.0811C99.5162 19.0811 101.909 23.5423 101.909 29.2822V35.2175C101.909 40.9589 99.5162 45.4202 96.4257 45.4202C93.3352 45.4202 90.9436 40.9198 90.9436 35.2175V29.2822M94.1103 36.9635C94.1103 42.8272 94.6518 44.5667 96.4273 44.5667C98.1655 44.5667 98.6973 42.8206 98.6973 36.9635V27.5377C98.6973 21.6741 98.1574 19.9345 96.4273 19.9345C94.6437 19.9345 94.1103 21.6806 94.1103 27.5377V36.9635Z" stroke="#99B0C1" stroke-width="0.861404" stroke-miterlimit="10"/>
<path d="M118.014 45.1868H107.896V44.3333H109.171V20.167H107.896V19.3135H113.26V20.167H111.986V44.3333H112.294C114.689 44.3333 116.271 43.1687 116.928 40.8037C117.199 39.9502 117.277 39.5626 117.431 38.0494H118.319L118.009 45.1868" fill="#99B0C1"/>
<path d="M118.014 45.1868H107.896V44.3333H109.171V20.167H107.896V19.3135H113.26V20.167H111.986V44.3333H112.294C114.689 44.3333 116.271 43.1687 116.928 40.8037C117.199 39.9502 117.277 39.5626 117.431 38.0494H118.319L118.009 45.1868" stroke="#99B0C1" stroke-width="0.861404" stroke-miterlimit="10"/>
<path d="M130.408 45.1868L125.93 22.6492V43.0921C125.93 44.1004 126.123 44.3333 126.934 44.3333H127.435V45.1868H123.496V44.3333H123.999C124.809 44.3333 125.002 44.1004 125.002 43.0921V20.167H123.728V19.3135H128.247L131.876 38.2807L135.428 19.3135H139.985V20.167H138.717V44.3333H139.989V45.1868H134.622V44.3333H135.897V22.6883L131.49 45.1868H130.408Z" fill="#99B0C1" stroke="#99B0C1" stroke-width="0.861404" stroke-miterlimit="10"/>
<path d="M154.312 27.2266H153.424V25.9089C153.424 25.0945 152.882 22.8436 152.535 22.0683C151.84 20.6708 151.068 20.0127 150.025 20.0127C148.597 20.0127 147.708 21.1366 147.708 22.9983C147.708 24.9382 148.287 26.2184 150.064 28.1974C154.388 33.0837 155.277 34.908 155.277 38.9474C155.277 41.2358 154.93 42.6317 154.003 43.8337C153.192 44.842 152.071 45.4251 150.836 45.4251C149.561 45.4251 148.636 44.9592 147.515 43.7572L146.824 45.1873H146.014V36.382H146.902V37.8479C146.902 39.1282 147.366 41.1837 147.875 42.1528C148.686 43.7051 149.69 44.4804 150.847 44.4804C152.508 44.4804 153.474 43.1236 153.474 40.757C153.474 38.1965 152.932 37.071 150.231 34.1229C146.897 30.4858 145.852 28.2348 145.852 24.7004C145.852 21.2148 147.473 19.0811 150.142 19.0811C151.222 19.0811 152.071 19.4687 152.845 20.3222L153.385 19.314H154.157L154.319 27.2266" fill="#99B0C1"/>
<path d="M154.312 27.2266H153.424V25.9089C153.424 25.0945 152.882 22.8436 152.535 22.0683C151.84 20.6708 151.068 20.0127 150.025 20.0127C148.597 20.0127 147.708 21.1366 147.708 22.9983C147.708 24.9382 148.287 26.2184 150.064 28.1974C154.388 33.0837 155.277 34.908 155.277 38.9474C155.277 41.2358 154.93 42.6317 154.003 43.8337C153.192 44.842 152.071 45.4251 150.836 45.4251C149.561 45.4251 148.636 44.9592 147.515 43.7572L146.824 45.1873H146.014V36.382H146.902V37.8479C146.902 39.1282 147.366 41.1837 147.875 42.1528C148.686 43.7051 149.69 44.4804 150.847 44.4804C152.508 44.4804 153.474 43.1236 153.474 40.757C153.474 38.1965 152.932 37.071 150.231 34.1229C146.897 30.4858 145.852 28.2348 145.852 24.7004C145.852 21.2148 147.473 19.0811 150.142 19.0811C151.222 19.0811 152.071 19.4687 152.845 20.3222L153.385 19.314H154.157L154.319 27.2266" stroke="#99B0C1" stroke-width="0.861404" stroke-miterlimit="10"/>
<path d="M55.9767 49.2696H56.0578L55.8616 49.9016H53.7812L53.8072 49.8169H53.8607C53.927 49.8186 53.9926 49.8041 54.052 49.7745C54.0961 49.7542 54.1333 49.7214 54.159 49.68C54.1936 49.6027 54.2218 49.5226 54.2434 49.4406L54.7298 47.8493C54.7563 47.7738 54.7747 47.6957 54.7849 47.6164C54.7849 47.5284 54.7055 47.4861 54.5482 47.4861H54.4752L54.4995 47.4014H56.275L56.2848 47.9649H56.2069C56.1834 47.847 56.1341 47.7357 56.0626 47.6392C56.0171 47.5767 55.952 47.5314 55.8778 47.5105C55.7506 47.4919 55.622 47.4848 55.4935 47.4893H55.1692L54.8449 48.5578H55.0249C55.1585 48.5657 55.292 48.5411 55.414 48.4861C55.5289 48.4031 55.6146 48.2856 55.6589 48.1506H55.7432L55.4481 49.1279H55.3638C55.3764 49.0657 55.3829 49.0024 55.3832 48.9389C55.3896 48.8668 55.3767 48.7943 55.3459 48.7288C55.3241 48.6917 55.2886 48.6647 55.247 48.6539C55.1726 48.6409 55.0971 48.6354 55.0217 48.6376H54.819L54.5855 49.4145C54.5603 49.4871 54.5419 49.5618 54.5304 49.6377C54.5284 49.6671 54.5356 49.6964 54.551 49.7215C54.5664 49.7467 54.5892 49.7663 54.6163 49.7778C54.7109 49.8111 54.8113 49.825 54.9114 49.8185H55.0573C55.2601 49.8307 55.4621 49.7844 55.6394 49.6849C55.7882 49.5808 55.905 49.4369 55.9767 49.2696Z" fill="#99B0C1"/>
<path d="M60.5335 49.0638H60.6097C60.6002 49.2816 60.6693 49.4956 60.8043 49.6664C60.8558 49.7235 60.9186 49.7692 60.9887 49.8006C61.0587 49.832 61.1345 49.8484 61.2113 49.8488C61.3375 49.8509 61.4596 49.8036 61.5518 49.7169C61.5977 49.6762 61.6344 49.626 61.6593 49.5698C61.6842 49.5136 61.6967 49.4527 61.6961 49.3911C61.6977 49.3006 61.6754 49.2112 61.6312 49.1322C61.5687 49.0312 61.4916 48.9401 61.4026 48.8618C61.2661 48.7413 61.1447 48.6045 61.041 48.4546C60.977 48.3451 60.9445 48.2199 60.947 48.093C60.9463 47.902 61.0203 47.7184 61.1529 47.5816C61.2111 47.5126 61.2833 47.457 61.3647 47.4186C61.4461 47.3801 61.5348 47.3596 61.6247 47.3584C61.7254 47.3577 61.8239 47.3877 61.9073 47.4444C61.9907 47.5011 62.055 47.5819 62.0917 47.676C62.1434 47.5918 62.1817 47.5001 62.2052 47.404H62.2798L62.1825 48.137H62.0998C62.1053 47.9989 62.0815 47.8612 62.0301 47.733C61.9906 47.6464 61.9298 47.5712 61.8534 47.5148C61.7834 47.4658 61.7002 47.4397 61.615 47.4399C61.5556 47.4384 61.4968 47.451 61.4433 47.4768C61.3897 47.5026 61.343 47.5407 61.3069 47.5881C61.2314 47.6846 61.1908 47.8041 61.1918 47.9269C61.1895 48.0229 61.2167 48.1173 61.2696 48.1972C61.36 48.3154 61.4616 48.4245 61.5728 48.523C61.7047 48.6333 61.8148 48.7676 61.8971 48.9188C61.9403 49.0179 61.9629 49.1249 61.9636 49.2331C61.9659 49.3307 61.9468 49.4275 61.9076 49.5168C61.8683 49.606 61.8099 49.6855 61.7366 49.7495C61.5997 49.879 61.4188 49.9512 61.2307 49.9514C61.1152 49.9492 61.0021 49.9182 60.9014 49.8614C60.8007 49.8046 60.7155 49.7236 60.6535 49.6257C60.5971 49.702 60.5553 49.7882 60.5303 49.8798H60.4395L60.5335 49.0638Z" fill="#99B0C1"/>
<path d="M68.2428 47.5588L67.6802 49.4221C67.6549 49.4928 67.6369 49.5659 67.6267 49.6404C67.6251 49.6681 67.6318 49.6956 67.646 49.7194C67.6601 49.7432 67.6811 49.7622 67.7061 49.7739C67.7619 49.8024 67.8236 49.817 67.8861 49.8163H67.951L67.9267 49.901H66.8598L66.8857 49.8163H66.9408C67.0083 49.8182 67.0754 49.8048 67.137 49.7772C67.1843 49.7562 67.2247 49.7224 67.2538 49.6795C67.2925 49.5977 67.324 49.5127 67.3478 49.4254L67.9202 47.536C67.7175 47.5181 67.544 47.5083 67.4029 47.5083C67.286 47.5036 67.169 47.5168 67.0559 47.5474C66.9781 47.5734 66.9408 47.6125 66.9408 47.6647C66.9427 47.6927 66.9493 47.7202 66.9603 47.7461C66.9698 47.7712 66.9758 47.7975 66.9781 47.8243C66.9783 47.8403 66.9752 47.8563 66.9691 47.8711C66.9629 47.8859 66.9539 47.8994 66.9424 47.9106C66.9282 47.9235 66.9115 47.9333 66.8933 47.9394C66.8751 47.9454 66.8559 47.9476 66.8368 47.9457C66.8177 47.9439 66.7993 47.9381 66.7825 47.9287C66.7658 47.9193 66.7513 47.9064 66.7398 47.8911C66.713 47.8554 66.6988 47.8119 66.6992 47.7673C66.7017 47.7139 66.718 47.6622 66.7464 47.617C66.7748 47.5719 66.8145 47.535 66.8614 47.5099C67.0427 47.4216 67.2443 47.3839 67.4451 47.4008C67.5894 47.4008 67.8602 47.4171 68.2558 47.4497C68.5428 47.4741 68.7568 47.4871 68.9044 47.4871C69.0519 47.4871 69.1184 47.4513 69.133 47.378C69.1476 47.3047 69.1687 47.2998 69.2092 47.2998C69.2498 47.2998 69.2984 47.3324 69.2984 47.3943C69.2984 47.5278 69.1573 47.5962 68.8736 47.5962C68.7439 47.5962 68.5331 47.5832 68.2428 47.5588Z" fill="#99B0C1"/>
<path d="M73.5782 47.4003H73.7582C73.8636 47.4003 73.9901 47.4003 74.1392 47.3922C74.2884 47.384 74.3808 47.3824 74.4376 47.3824C74.6483 47.3761 74.8572 47.4226 75.0456 47.5176C75.209 47.6049 75.339 47.7441 75.4153 47.9134C75.4968 48.0865 75.5388 48.2757 75.5386 48.4672C75.5368 48.6515 75.5005 48.8339 75.4315 49.0047C75.3659 49.1784 75.2673 49.3377 75.1413 49.4738C75.0289 49.5965 74.8933 49.6956 74.7424 49.7653C74.6188 49.8234 74.487 49.8619 74.3517 49.8793C74.1798 49.8961 74.0071 49.9031 73.8344 49.9005H72.834L72.8599 49.8158H72.9653C73.0321 49.8176 73.0983 49.803 73.1583 49.7735C73.2024 49.7532 73.2396 49.7203 73.2653 49.679C73.2991 49.6013 73.3272 49.5213 73.3496 49.4396L73.836 47.8482C73.8617 47.7725 73.8802 47.6945 73.8912 47.6153C73.8912 47.5274 73.8117 47.485 73.6528 47.485H73.5588L73.5782 47.4003ZM74.2754 47.4704L73.682 49.4249C73.6574 49.4951 73.64 49.5677 73.6301 49.6415C73.6301 49.7588 73.7566 49.8174 74.0063 49.8174C74.181 49.824 74.3543 49.7843 74.5089 49.7022C74.6634 49.6202 74.7938 49.4987 74.8867 49.35C75.0868 49.055 75.1947 48.7068 75.1964 48.3499C75.2065 48.1197 75.1384 47.8929 75.0035 47.7065C74.9326 47.6212 74.8426 47.5542 74.7408 47.5108C74.639 47.4675 74.5284 47.4491 74.4181 47.4573C74.3704 47.4589 74.3227 47.4632 74.2754 47.4704Z" fill="#99B0C1"/>
<path d="M90.9859 47.4189H91.0881L90.4395 49.5803C90.4213 49.6334 90.4078 49.6879 90.399 49.7432C90.3978 49.7564 90.401 49.7696 90.408 49.7808C90.415 49.792 90.4255 49.8005 90.4379 49.8051C90.4855 49.8174 90.5347 49.8223 90.5838 49.8198H90.7103L90.6844 49.9045H89.7715L89.7974 49.8198H89.8996C89.9664 49.8277 90.0341 49.8175 90.0958 49.7905C90.1407 49.7234 90.1721 49.6481 90.1882 49.5689L90.6552 48.0265C90.6776 47.9614 90.6939 47.8943 90.7038 47.8261C90.7038 47.748 90.626 47.7072 90.4719 47.7007H90.3633L90.386 47.6209C90.6779 47.6095 90.8838 47.5444 90.9859 47.4189Z" fill="#99B0C1"/>
<path d="M97.0007 48.8244C96.9475 48.8872 96.8818 48.9381 96.8078 48.9738C96.7337 49.0094 96.6531 49.029 96.571 49.0313C96.4928 49.0331 96.4153 49.0153 96.3457 48.9795C96.276 48.9436 96.2164 48.8909 96.1721 48.8261C96.07 48.6842 96.0175 48.5124 96.023 48.3374C96.0182 48.0967 96.1059 47.8634 96.2678 47.6859C96.3353 47.6038 96.4197 47.5374 96.5151 47.491C96.6105 47.4446 96.7147 47.4194 96.8207 47.4171C96.9016 47.4152 96.9818 47.4319 97.0552 47.4661C97.1286 47.5003 97.1932 47.551 97.2439 47.6142C97.3599 47.7721 97.4172 47.9657 97.406 48.1615C97.4014 48.4684 97.3324 48.7709 97.2034 49.0492C97.1016 49.3089 96.9451 49.5434 96.7445 49.7365C96.5977 49.8755 96.4046 49.9545 96.2029 49.9581C96.0946 49.9661 95.9871 49.9349 95.8997 49.8701C95.8712 49.8486 95.8477 49.8211 95.8306 49.7897C95.8135 49.7582 95.8034 49.7234 95.8008 49.6877C95.8004 49.6706 95.8033 49.6535 95.8094 49.6376C95.8156 49.6216 95.8248 49.607 95.8365 49.5946C95.8483 49.5822 95.8623 49.5722 95.8779 49.5653C95.8935 49.5583 95.9103 49.5545 95.9273 49.5541C95.9954 49.5541 96.0489 49.6111 96.0894 49.717C96.0974 49.759 96.1198 49.7968 96.1527 49.8239C96.1856 49.851 96.2269 49.8656 96.2694 49.8652C96.3551 49.8609 96.4363 49.8256 96.498 49.7659C96.6079 49.6546 96.6969 49.5244 96.7607 49.3815C96.8543 49.202 96.9345 49.0158 97.0007 48.8244ZM96.25 48.6225C96.2478 48.6666 96.2545 48.7108 96.2699 48.7522C96.2852 48.7936 96.3088 48.8315 96.3391 48.8635C96.3721 48.8937 96.4108 48.917 96.4528 48.9321C96.4948 48.9472 96.5394 48.9538 96.584 48.9515C96.6801 48.9469 96.773 48.9153 96.8521 48.8603C96.9312 48.8053 96.9934 48.7291 97.0315 48.6404C97.149 48.4331 97.2094 48.1981 97.2066 47.9595C97.2171 47.8338 97.1787 47.7089 97.0996 47.611C97.069 47.576 97.0314 47.548 96.9891 47.5289C96.9469 47.5098 96.9011 47.5 96.8548 47.5002C96.7989 47.503 96.7442 47.5175 96.6942 47.5428C96.6443 47.568 96.6001 47.6034 96.5645 47.6468C96.4544 47.7766 96.3761 47.9306 96.3359 48.0964C96.2832 48.2669 96.2542 48.4439 96.25 48.6225Z" fill="#99B0C1"/>
<path d="M102.721 48.5218C102.784 48.5196 102.848 48.5308 102.907 48.5546C102.966 48.5785 103.02 48.6144 103.065 48.6602C103.111 48.709 103.146 48.7666 103.17 48.8295C103.193 48.8925 103.204 48.9596 103.201 49.0267C103.2 49.1495 103.174 49.2707 103.124 49.3829C103.075 49.495 103.002 49.5956 102.912 49.6782C102.826 49.7687 102.723 49.8406 102.608 49.8896C102.493 49.9386 102.37 49.9637 102.246 49.9633C102.116 49.9656 101.987 49.9359 101.871 49.8769C101.761 49.8183 101.709 49.7499 101.709 49.6701C101.709 49.5903 101.748 49.5414 101.826 49.5414C101.904 49.5414 101.944 49.5903 101.988 49.6864C102.008 49.7429 102.045 49.7919 102.094 49.8271C102.142 49.8622 102.2 49.8819 102.26 49.8835C102.38 49.8796 102.494 49.8348 102.585 49.7564C102.704 49.6512 102.794 49.5156 102.844 49.3639C102.903 49.2226 102.936 49.0721 102.943 48.9192C102.946 48.8357 102.921 48.7535 102.872 48.6863C102.849 48.6572 102.82 48.6339 102.788 48.618C102.755 48.6022 102.718 48.5943 102.682 48.5951C102.577 48.6091 102.479 48.6565 102.403 48.7303C102.374 48.7579 102.338 48.7775 102.299 48.7873C102.262 48.7873 102.244 48.771 102.244 48.7368C102.244 48.7026 102.267 48.6863 102.315 48.657C102.364 48.6277 102.478 48.5625 102.664 48.4632C103.024 48.2677 103.204 48.0527 103.204 47.8116C103.208 47.7651 103.2 47.7183 103.18 47.676C103.161 47.6337 103.13 47.5973 103.092 47.5706C103.011 47.5194 102.917 47.4933 102.821 47.4957C102.769 47.4922 102.716 47.5003 102.666 47.5194C102.617 47.5385 102.573 47.5682 102.536 47.6064C102.475 47.6706 102.44 47.7555 102.439 47.8442C102.44 47.8971 102.455 47.9488 102.482 47.9941C102.489 48.0035 102.493 48.014 102.495 48.025C102.495 48.0397 102.474 48.0641 102.434 48.0951C102.409 48.1183 102.379 48.1346 102.346 48.1423C102.322 48.1423 102.296 48.1195 102.27 48.0722C102.243 48.0223 102.23 47.9661 102.231 47.9094C102.23 47.8403 102.247 47.772 102.278 47.7107C102.31 47.6494 102.356 47.5968 102.413 47.5575C102.551 47.4598 102.719 47.4112 102.888 47.4191C103.035 47.4107 103.18 47.4489 103.304 47.5282C103.352 47.558 103.391 47.5996 103.418 47.649C103.444 47.6984 103.458 47.7538 103.457 47.81C103.454 47.9193 103.413 48.0241 103.342 48.1065C103.202 48.2476 103.037 48.3614 102.855 48.442C102.799 48.4811 102.75 48.5006 102.721 48.5218Z" fill="#99B0C1"/>
<path d="M109.168 48.8243C109.115 48.8871 109.049 48.938 108.975 48.9737C108.901 49.0093 108.821 49.0289 108.739 49.0312C108.66 49.0332 108.583 49.0154 108.513 48.9796C108.444 48.9437 108.384 48.8909 108.34 48.8259C108.237 48.6843 108.184 48.5125 108.189 48.3373C108.185 48.0964 108.273 47.8631 108.435 47.6858C108.503 47.6037 108.587 47.5372 108.683 47.4909C108.778 47.4445 108.882 47.4193 108.988 47.417C109.069 47.4149 109.149 47.4316 109.222 47.4658C109.295 47.5 109.36 47.5508 109.41 47.6141C109.527 47.7716 109.584 47.9655 109.572 48.1614C109.567 48.4682 109.498 48.7706 109.369 49.0491C109.268 49.3088 109.111 49.5433 108.911 49.7364C108.764 49.8754 108.571 49.9544 108.369 49.958C108.261 49.9663 108.153 49.9351 108.066 49.87C108.037 49.8485 108.014 49.821 107.997 49.7896C107.98 49.7581 107.969 49.7233 107.967 49.6876C107.966 49.6705 107.969 49.6534 107.975 49.6375C107.982 49.6215 107.991 49.6069 108.003 49.5945C108.014 49.5821 108.028 49.5721 108.044 49.5652C108.059 49.5582 108.076 49.5544 108.093 49.554C108.161 49.554 108.215 49.611 108.255 49.7169C108.263 49.7589 108.286 49.7967 108.319 49.8238C108.352 49.8509 108.393 49.8655 108.435 49.8651C108.521 49.8608 108.602 49.8255 108.664 49.7658C108.774 49.6545 108.863 49.5243 108.927 49.3814C109.021 49.2019 109.102 49.0157 109.168 48.8243ZM108.418 48.6223C108.415 48.6665 108.422 48.7107 108.438 48.7521C108.453 48.7935 108.476 48.8314 108.507 48.8634C108.54 48.8936 108.578 48.9169 108.62 48.932C108.662 48.9471 108.707 48.9537 108.752 48.9514C108.848 48.9483 108.943 48.9177 109.023 48.8633C109.103 48.8088 109.167 48.7326 109.206 48.6435C109.324 48.4364 109.385 48.2014 109.382 47.9627C109.393 47.837 109.354 47.7121 109.275 47.6141C109.245 47.5792 109.207 47.5512 109.165 47.5321C109.123 47.513 109.077 47.5032 109.031 47.5034C108.975 47.5062 108.92 47.5207 108.87 47.5459C108.82 47.5712 108.776 47.6066 108.74 47.65C108.63 47.7794 108.551 47.9335 108.512 48.0995C108.456 48.2686 108.425 48.4445 108.418 48.6223Z" fill="#99B0C1"/>
</g>
<defs>
<clipPath id="clip0_1_549">
<rect width="146.356" height="30.96" fill="white" transform="translate(9 19)"/>
</clipPath>
</defs>
</svg>
