<svg width="164" height="80" viewBox="0 0 164 80" fill="none" xmlns="http://www.w3.org/2000/svg">
<g clip-path="url(#clip0_1_502)">
<path d="M21.211 61.6051C21.1054 61.4669 21.0078 61.3206 20.89 61.1987C19.6544 59.9591 18.423 58.7073 17.1671 57.484C16.0617 56.4069 15.1553 55.1999 14.5863 53.7571C14.5701 53.7124 14.5335 53.6799 14.4807 53.6067H7.98198V47.1202C7.39673 46.8113 6.86838 46.5309 6.34003 46.2505C5.60441 45.8522 4.98664 45.2954 4.39733 44.7182C2.97079 43.3242 1.56863 41.9017 0.154283 40.4915C0.109576 40.4467 0.0689338 40.398 0.00390625 40.3248C0.11364 40.207 0.21931 40.085 0.329044 39.9753C1.7312 38.5772 3.13336 37.1832 4.53145 35.777C5.4459 34.8544 6.5026 34.1513 7.70155 33.6514C7.7747 33.6189 7.84379 33.5782 7.95759 33.5213V26.986H14.4604C14.8221 26.3154 15.1106 25.6774 15.5008 25.1043C15.9072 24.5028 16.3746 23.9338 16.8786 23.4136C18.1994 22.0521 19.561 20.7231 20.9021 19.3819C21.0159 19.2681 21.1135 19.134 21.2232 19.0039C21.3208 19.073 21.3817 19.1014 21.4224 19.1421C22.9627 20.6784 24.5071 22.2065 26.0393 23.755C26.8359 24.5597 27.4374 25.4945 27.8804 26.5349C27.9373 26.669 28.0023 26.7991 28.0836 26.9698H34.5742C34.6717 27.3965 34.7124 32.0866 34.6352 33.4969C34.7286 33.5498 34.8343 33.6229 34.9481 33.6676C36.0861 34.1391 37.094 34.8056 37.9678 35.6713C39.3944 37.0897 40.8168 38.5122 42.2393 39.9347C42.3409 40.0363 42.4385 40.146 42.5563 40.2679C42.5076 40.337 42.471 40.4102 42.4141 40.463C40.9022 41.979 39.3944 43.503 37.8662 45.0068C37.0127 45.844 36.0211 46.4862 34.9115 46.9373C34.8384 46.9658 34.7693 47.0105 34.6595 47.0633V53.6026C34.0743 53.6433 33.5256 53.6189 32.981 53.623C32.4445 53.627 31.9081 53.623 31.3716 53.623H28.0918C28.0227 53.7571 27.9536 53.8831 27.8967 54.0131C27.409 55.1592 26.7221 56.1712 25.8321 57.0491C24.4258 58.4431 23.0277 59.8453 21.6296 61.2434C21.5158 61.3572 21.4183 61.4832 21.3126 61.6051H21.2151H21.211ZM21.272 22.1984C21.1338 22.3284 21.0159 22.4341 20.9021 22.5479C20.0771 23.3729 19.2399 24.1858 18.427 25.0271C18.0572 25.4091 17.7077 25.8196 17.3988 26.2504C17.1305 26.6243 16.8664 27.0145 16.7485 27.4981C17.6833 27.8842 18.5286 28.376 19.309 28.9978C20.1015 29.6318 20.6745 30.4447 21.3004 31.3307C21.8491 30.4162 22.475 29.6603 23.2228 29.01C23.9869 28.3476 24.8729 27.8842 25.8321 27.4859C25.763 27.3152 25.7142 27.1811 25.6492 27.0551C25.3118 26.3845 24.8891 25.7749 24.3567 25.2466C23.4342 24.3321 22.5197 23.4136 21.6012 22.4991C21.4996 22.3975 21.3899 22.3081 21.2679 22.1984H21.272ZM16.7688 53.1474C16.842 53.3181 16.8908 53.4726 16.9639 53.6108C17.3053 54.261 17.728 54.8503 18.2401 55.3746C19.0204 56.1753 19.817 56.9637 20.6055 57.7563C20.8209 57.9717 21.0363 58.183 21.2557 58.4025C21.3573 58.3171 21.4224 58.2724 21.4793 58.2155C22.4913 57.2076 23.5073 56.2119 24.503 55.1877C24.8282 54.8544 25.1046 54.4642 25.3606 54.0741C25.5516 53.7855 25.7426 53.4807 25.7955 53.1474C25.194 52.8101 24.6087 52.5012 24.0438 52.1598C23.4707 51.8144 22.9627 51.3795 22.5278 50.8796C22.097 50.3838 21.7069 49.8595 21.2923 49.3393C19.4675 51.6843 19.8048 51.4689 16.7688 53.1515V53.1474ZM12.3551 40.2964C10.4855 39.199 9.24189 37.6871 8.48594 35.8176C8.39653 35.8176 8.35995 35.8095 8.3315 35.8176C8.27054 35.8379 8.21364 35.8664 8.15267 35.8948C7.46988 36.2118 6.85619 36.6304 6.32377 37.1629C5.35649 38.122 4.39327 39.0893 3.43005 40.0525C3.3447 40.1379 3.27561 40.2435 3.18213 40.3573C3.74706 40.9182 4.28353 41.4587 4.82814 41.9911C5.44184 42.5927 6.05147 43.1982 6.69362 43.7713C7.20165 44.2265 7.77877 44.5801 8.46156 44.8605C9.22157 42.9178 10.4693 41.41 12.3551 40.2964ZM34.1393 35.7729C34.054 35.9477 33.993 36.0777 33.9239 36.2037C33.7044 36.6182 33.5053 37.045 33.2574 37.4433C32.6071 38.4715 31.7699 39.3169 30.7457 39.9794C30.5953 40.0769 30.384 40.1257 30.323 40.3614C32.1153 41.3937 33.3346 42.9056 34.1149 44.8117C34.2734 44.7548 34.3994 44.7223 34.5092 44.6654C35.1757 44.324 35.7935 43.9054 36.3259 43.373C37.2566 42.4463 38.1873 41.5197 39.1139 40.589C39.2033 40.4996 39.2765 40.398 39.3578 40.3045C39.3212 40.2395 39.3049 40.1907 39.2724 40.1582C38.1832 39.069 37.1021 37.9676 35.9926 36.9027C35.4805 36.411 34.8709 36.033 34.1393 35.7729ZM17.98 40.3045C17.984 42.044 19.3862 43.6006 21.3167 43.5843C23.1822 43.5681 24.5925 42.1659 24.6047 40.3086C24.6128 38.4553 23.1984 37.0084 21.2964 37.0043C19.3659 37.0003 17.9718 38.565 17.98 40.3045ZM32.408 47.5998C30.9977 47.7908 29.6646 47.6323 28.2909 47.299C28.6282 48.6809 28.8071 49.9977 28.612 51.3267C29.0916 51.4364 31.9812 51.4364 32.4039 51.3307V47.5957L32.408 47.5998ZM28.5917 29.2173C28.8314 30.5991 28.6038 31.9241 28.299 33.31C29.6727 32.9117 31.0017 32.8466 32.3307 32.9483C32.4608 32.5378 32.4608 29.6156 32.3389 29.2132H28.5957L28.5917 29.2173ZM14.2571 33.31C14.1352 32.5825 13.9808 31.9363 13.9279 31.286C13.871 30.6154 13.9157 29.9367 13.9157 29.2539C13.5784 29.1604 10.7335 29.1401 10.2295 29.2376C10.1441 29.6766 10.1482 32.5581 10.2417 32.9726C11.5788 32.8182 12.9038 32.932 14.2571 33.314V33.31ZM10.1807 51.3389C10.8391 51.4527 13.6475 51.4242 13.9605 51.3104C13.8182 49.9733 13.9198 48.6524 14.2978 47.2868C12.9159 47.6729 11.5869 47.7502 10.1807 47.6323C10.1726 48.8759 10.1726 50.0993 10.1807 51.3429V51.3389ZM10.7172 45.3848C12.5055 45.7993 15.4805 44.7711 16.5941 43.312C16.3299 42.6983 16.0698 42.0928 15.8137 41.4913C13.5256 41.5969 11.2252 43.6128 10.7172 45.3848ZM31.8877 35.1836C29.8109 34.83 27.092 35.8867 25.9946 37.2726C26.2547 37.8903 26.5067 38.4959 26.7628 39.1056C28.7705 39.0202 31.1846 37.297 31.8918 35.1836H31.8877ZM16.1429 50.8837C18.2645 50.2171 20.0771 47.6973 20.0771 45.7262C19.4593 45.4701 18.8497 45.2222 18.2035 44.958C16.6713 46.6162 15.9519 48.563 16.1429 50.8837ZM26.3645 29.7213C24.3161 30.4366 22.4384 32.9198 22.5197 34.8666C23.1253 35.1185 23.7187 35.3705 24.3202 35.6184C25.9296 34.2935 26.7912 31.1397 26.3645 29.7213ZM26.3888 50.8593C26.8806 49.3311 25.637 45.8359 24.3202 44.9784C23.7065 45.2303 23.109 45.4742 22.5116 45.7221C22.4872 47.7664 24.4583 50.2862 26.3929 50.8593H26.3888ZM20.0934 34.8544C20.0202 32.7735 18.1669 30.3268 16.1429 29.7335C15.956 32.0297 16.6632 33.9846 18.2076 35.6306C18.87 35.3583 19.4797 35.1064 20.0934 34.8544ZM10.6847 35.1511C11.3472 37.1791 13.7288 39.0446 15.8259 39.0893C16.0901 38.4675 16.3502 37.8538 16.6225 37.2116C14.9521 35.6753 12.9972 34.9804 10.6847 35.1511ZM25.9865 43.3364C27.3155 44.8646 30.0304 45.7506 31.8755 45.401C31.2659 43.4096 28.8071 41.5522 26.7465 41.5116C26.4945 42.109 26.2466 42.7024 25.9824 43.3405L25.9865 43.3364Z" fill="#99B0C1"/>
<path d="M163.927 36.3997H160.131V47.9218H157.802C157.737 47.2918 157.782 46.6659 157.773 46.04C157.765 45.3938 157.773 44.7436 157.773 44.0933V36.4241H153.986C153.957 35.66 153.973 34.9406 153.973 34.1562H163.927V36.3956V36.3997Z" fill="#99B0C1"/>
<path d="M144.92 34.1925H147.318V47.8808C146.96 48.0149 146.603 47.9336 146.249 47.9499C145.912 47.9621 145.57 47.9499 145.204 47.9499C142.949 44.853 140.697 41.7682 138.446 38.6794L138.356 38.7038V47.8564C137.942 47.9702 136.466 47.9824 135.975 47.8849V34.1803C136.32 34.1763 136.67 34.1681 137.023 34.1641C137.365 34.1641 137.706 34.1641 138.096 34.1641C140.344 37.2529 142.603 40.3539 144.924 43.5443V34.1925H144.92Z" fill="#99B0C1"/>
<path d="M100.014 47.922V34.193C100.16 34.1809 100.282 34.1646 100.408 34.1646C101.806 34.1646 103.2 34.1524 104.598 34.1646C106.264 34.1809 107.76 34.697 109.028 35.7862C110.056 36.6682 110.719 37.7899 111.036 39.1026C111.544 41.1957 111.324 43.1912 110.134 45.0242C109.158 46.532 107.74 47.4221 105.992 47.7716C105.391 47.8935 104.769 47.9301 104.155 47.9423C102.952 47.9667 101.753 47.9504 100.55 47.9504C100.375 47.9504 100.205 47.9301 100.014 47.922ZM102.432 45.6542C103.224 45.6542 103.984 45.6785 104.744 45.6501C106.134 45.5973 107.248 44.9836 108.012 43.8293C109.069 42.228 109.134 40.517 108.333 38.7937C107.784 37.6111 106.821 36.8754 105.553 36.5544C105.334 36.4975 105.106 36.4568 104.883 36.4528C104.078 36.4406 103.269 36.4487 102.436 36.4487V45.6542H102.432Z" fill="#99B0C1"/>
<path d="M86.0341 47.8603C85.6115 47.9782 84.1077 47.9823 83.6484 47.8766V34.2005C83.7704 34.1883 83.8923 34.1639 84.0183 34.1639C85.4489 34.1639 86.8754 34.1599 88.306 34.1639C89.0132 34.1639 89.6919 34.3062 90.3382 34.5988C91.4152 35.0865 92.1508 35.8831 92.5125 37.017C92.8661 38.1265 92.8295 39.2157 92.3987 40.2968C91.9882 41.3169 91.2526 42.0079 90.2406 42.4143C90.1675 42.4427 90.0862 42.4671 90.009 42.4956C89.9317 42.524 89.8586 42.5525 89.7245 42.6053C90.2487 43.5116 90.8381 44.357 91.3867 45.2227C91.9395 46.0965 92.5044 46.9662 93.0693 47.84C92.7523 47.9741 91.1347 48.0107 90.326 47.9091C89.253 46.2062 88.1638 44.483 87.0827 42.7679H86.0382V47.8603H86.0341ZM86.0545 40.4878C86.66 40.4878 87.2412 40.5 87.8183 40.4838C88.1394 40.4757 88.4686 40.4513 88.7816 40.3781C89.4278 40.2237 89.9561 39.8863 90.1796 39.2279C90.5779 38.0656 90.1553 36.6878 88.5174 36.4968C87.8305 36.4155 87.1274 36.4358 86.4324 36.4155C86.3064 36.4155 86.1845 36.4358 86.0504 36.4521V40.4878H86.0545Z" fill="#99B0C1"/>
<path d="M121.704 34.1805H124.139C125.911 38.7325 127.683 43.2844 129.455 47.8363C129.097 47.9705 127.776 48.003 127.073 47.9014C126.667 46.8528 126.248 45.7839 125.825 44.6988H120.017C119.599 45.7758 119.184 46.8447 118.762 47.9217H116.352C118.144 43.3169 119.92 38.7528 121.7 34.1805H121.704ZM122.923 37.1881C122.228 38.9926 121.574 40.6874 120.903 42.435H124.943C124.273 40.6914 123.618 38.9966 122.923 37.1881Z" fill="#99B0C1"/>
<path d="M70.3769 42.0162V45.613C70.885 45.7105 71.3849 45.6455 71.8807 45.6577C72.3847 45.6699 72.8886 45.6577 73.3926 45.6577H74.9045C75.4044 45.6577 75.9043 45.6577 76.4408 45.6577C76.5058 46.0601 76.4651 46.4299 76.4733 46.7957C76.4814 47.1493 76.4733 47.5069 76.4733 47.828C76.4245 47.8686 76.4164 47.8808 76.4001 47.889C76.3879 47.8971 76.3757 47.9134 76.3595 47.9174C76.2457 47.9296 76.1359 47.9459 76.0221 47.9459C73.4088 47.9459 70.7956 47.9459 68.1782 47.9418C68.1335 47.9418 68.0888 47.9134 68.0156 47.893V34.1885H76.3188V36.4157H70.381V39.7077C70.9784 39.7321 71.5718 39.7158 72.1652 39.7199C72.7667 39.7199 73.3682 39.7199 73.9656 39.7199H75.7498C75.884 40.0857 75.9043 41.439 75.7824 42.008C74.8923 42.0162 73.99 42.008 73.0878 42.008C72.1977 42.008 71.3076 42.008 70.3688 42.008L70.3769 42.0162Z" fill="#99B0C1"/>
<path d="M61.5947 34.1808C59.5382 38.9319 57.5061 43.622 55.4252 48.4259C53.3443 43.6179 51.3122 38.9238 49.2598 34.1808H51.869C53.0679 37.0745 54.2669 39.9561 55.5024 42.927C56.742 39.9764 57.9044 37.0705 59.1074 34.1768H61.5947V34.1808Z" fill="#99B0C1"/>
</g>
<defs>
<clipPath id="clip0_1_502">
<rect width="163.06" height="42.38" fill="white" transform="translate(0 19)"/>
</clipPath>
</defs>
</svg>
